# xmcd CD database file
#
# Track frame offsets:
#	150
#	26175
#	56400
#	80325
#	99232
#	142452
#	167831
#	195793
#
# Disc length: 2995 seconds
#
# Revision: 0
# Processed by: cddbd v1.5.2PL0 Copyright (c) Steve Scherf et al.
# Submitted via: CDex 1.70beta2
#
DISCID=640bb108
DTITLE=西尾健一 - Go Ahead, Have Fun!
DYEAR=2005
DGENRE=Jazz
TTITLE0=Half Sugar
TTITLE1=Black Mist
TTITLE2=Hydro Foil
TTITLE3=Time Bomb
TTITLE4=Eclipse
TTITLE5=Sea Monkey
TTITLE6=Fire Land
TTITLE7=Coche
EXTD=YEAR: 2005
EXTT0=
EXTT1=
EXTT2=
EXTT3=
EXTT4=
EXTT5=
EXTT6=
EXTT7=
PLAYORDER=
